<svg class="m-l-10" width="113px" height="22px" viewBox="0 0 113 22" version="1.1" xmlns="http://www.w3.org/2000/svg" xmlns:xlink="http://www.w3.org/1999/xlink">
    <title>Buy Me A Coffee</title>
    <g id="Page-1" stroke="none" stroke-width="1" fill="none" fill-rule="evenodd" opacity="0.5">
        <g id="Creator-page--Home" transform="translate(-1114.000000, -2628.000000)" fill="#000000">
            <g id="Group-43" transform="translate(929.000000, 2628.000000)">
                <g id="Group-23" transform="translate(98.000000, 0.000000)">
                    <g id="Logo" transform="translate(87.000000, 0.000000)">
                        <g id="Page-1" transform="translate(0.320000, 0.643404)">
                            <g id="Group-3" transform="translate(0.000000, 0.035122)">
                                <path d="M7.29030244,10.0368317 C7.10571707,10.3884368 6.85186341,10.6946359 6.52893659,10.9544589 C6.20600976,11.2144759 5.82922927,11.4261763 5.39859512,11.5891721 C4.96796098,11.7525559 4.53459512,11.86219 4.0988878,11.9180742 C3.66298537,11.9741525 3.23996098,11.9693014 2.83000976,11.9027449 C2.41986341,11.8365763 2.07098537,11.7015227 1.7841561,11.49739 L2.10727805,8.1478274 C2.40444878,8.04595506 2.77849756,7.94136613 3.22981463,7.83425464 C3.68093659,7.72733719 4.14493659,7.65069038 4.62181463,7.60489634 C5.09869268,7.55890826 5.54961951,7.56434145 5.97537561,7.6202257 C6.40054634,7.676304 6.73654634,7.81135762 6.98259512,8.0255806 C7.11586341,8.1478274 7.22883902,8.28035847 7.32113171,8.42317379 C7.41322927,8.56598911 7.46961951,8.71384953 7.49030244,8.86675506 C7.54142439,9.29500698 7.4748878,9.68503251 7.29030244,10.0368317 L7.29030244,10.0368317 Z M2.59918049,2.90169294 C2.81459512,2.76916187 3.07352195,2.65176613 3.37596098,2.54969974 C3.6784,2.44802145 3.9886439,2.37641974 4.30649756,2.33567081 C4.6241561,2.29511591 4.9344,2.28968272 5.23703415,2.32034145 C5.53927805,2.35100017 5.80620488,2.4350206 6.03683902,2.57259677 C6.26747317,2.71036698 6.43918049,2.9092606 6.55196098,3.16908357 C6.66474146,3.42929464 6.69557073,3.75819677 6.64425366,4.15578996 C6.60327805,4.47188528 6.47742439,4.739664 6.26747317,4.95873804 C6.05732683,5.17820017 5.80074146,5.36157038 5.49849756,5.50943081 C5.19605854,5.65748528 4.87566829,5.77468698 4.53732683,5.86103591 C4.19879024,5.94796698 3.87313171,6.01180698 3.56054634,6.05236187 C3.24776585,6.09330485 2.9761561,6.11891847 2.74552195,6.12881464 C2.51469268,6.13909889 2.36327805,6.144144 2.29166829,6.144144 L2.59918049,2.90169294 Z M8.95137561,7.87248102 C8.78727805,7.51583081 8.56679024,7.20225804 8.29010732,6.93176272 C8.01322927,6.66165549 7.68483902,6.46547847 7.30571707,6.34303762 C7.46961951,6.21050655 7.63118049,6.00152272 7.79020488,5.71589209 C7.94903415,5.43064953 8.08483902,5.11940528 8.19761951,4.78293549 C8.3104,4.44627166 8.38747317,4.10747336 8.42844878,3.76576443 C8.46922927,3.42424953 8.45381463,3.13105123 8.3824,2.88616953 C8.20776585,2.2745474 7.93361951,1.7952623 7.55937561,1.44850826 C7.18493659,1.10194826 6.74942439,0.862305702 6.25205854,0.729580596 C5.75469268,0.597437617 5.20620488,0.569107404 4.6064,0.64556017 C4.00659512,0.722012936 3.39371707,0.872395915 2.76854634,1.09670911 C2.76854634,1.04586996 2.77361951,0.992314213 2.78396098,0.936235915 C2.7939122,0.88035166 2.79918049,0.821556766 2.79918049,0.760239319 C2.79918049,0.607333787 2.72230244,0.474996766 2.56854634,0.362646128 C2.41479024,0.250489532 2.23781463,0.184321021 2.03800976,0.163752511 C1.83800976,0.143572085 1.64308293,0.186649532 1.45342439,0.293761021 C1.26357073,0.400872511 1.13283902,0.597437617 1.06122927,0.882486128 C0.979082927,1.8003074 0.897131707,2.75383251 0.815180488,3.74267336 C0.733034146,4.7319023 0.646009756,5.73122145 0.553717073,6.74082485 C0.46142439,7.75023421 0.369131707,8.75207591 0.276839024,9.74615591 C0.184546341,10.74043 0.0922536585,11.6962836 -3.90243902e-05,12.6139108 C0.0307902439,12.8892572 0.107668293,13.1034802 0.230790244,13.2563857 C0.353717073,13.4094853 0.497326829,13.5012674 0.66142439,13.5317321 C0.825326829,13.5623908 0.997229268,13.5340606 1.17654634,13.4475176 C1.35586341,13.3611687 1.51235122,13.2103976 1.64581463,12.9963687 C2.05576585,13.2206819 2.51722927,13.3660197 3.03000976,13.4323823 C3.54259512,13.4985508 4.06279024,13.4985508 4.59118049,13.4323823 C5.11898537,13.3660197 5.63937561,13.2412504 6.1521561,13.0574921 C6.66474146,12.8741219 7.13127805,12.6445695 7.55176585,12.3694172 C7.97205854,12.0940708 8.32581463,11.780304 8.61303415,11.4286989 C8.90005854,11.0767057 9.08971707,10.6969644 9.18200976,10.289281 C9.27430244,9.87111932 9.29986341,9.45315166 9.2588878,9.03498996 C9.2179122,8.6170223 9.11527805,8.22971336 8.95137561,7.87248102 L8.95137561,7.87248102 Z" id="Fill-1"></path>
                            </g>
                            <g id="Group-6" transform="translate(9.365854, 4.304058)">
                                <path d="M14.5890732,11.6793631 C14.5326829,12.0158329 14.4530732,12.3701546 14.3506341,12.7425222 C14.248,13.1145018 14.1276098,13.4536882 13.9892683,13.7596933 C13.8509268,14.0655043 13.6969756,14.3125205 13.528,14.5013239 C13.3586341,14.6899333 13.1765854,14.7691026 12.9818537,14.738638 C12.8280976,14.7178754 12.7305366,14.6210482 12.6897561,14.4479622 C12.6485854,14.2742941 12.6485854,14.0602652 12.6897561,13.8054873 C12.7305366,13.5505154 12.8099512,13.2623622 12.928,12.9412218 C13.0458537,12.6200814 13.1894634,12.3012694 13.3586341,11.9853682 C13.528,11.6690788 13.7201951,11.3659843 13.9354146,11.0753086 C14.1508293,10.7848269 14.3761951,10.5424677 14.6120976,10.3488133 C14.6634146,10.4099367 14.686439,10.5628422 14.6813659,10.8077239 C14.6759024,11.0524116 14.6452683,11.3430873 14.5890732,11.6793631 M19.803122,5.04136136 C19.6645854,4.88845583 19.4954146,4.80191285 19.2954146,4.78134434 C19.0956098,4.76096987 18.892878,4.87312647 18.688,5.11781413 C18.5545366,5.36250179 18.3853659,5.59709923 18.1802927,5.82141243 C17.9752195,6.04591966 17.7625366,6.24966434 17.5420488,6.4332286 C17.321561,6.61659881 17.1114146,6.77493753 16.9114146,6.90727455 C16.7116098,7.03999966 16.555122,7.13682689 16.4423415,7.1979503 C16.4013659,6.87176477 16.3781463,6.51996562 16.3732683,6.14255285 C16.3678049,5.76533413 16.3756098,5.3830703 16.3962927,4.99556732 C16.4269268,4.44487455 16.4909268,3.88933072 16.5884878,3.3283537 C16.6858537,2.76757072 16.8269268,2.21687796 17.0115122,1.6762754 C17.0115122,1.39103285 16.9445854,1.15895796 16.8115122,0.980438809 C16.6780488,0.802113702 16.5166829,0.689763064 16.3270244,0.643969021 C16.1371707,0.598174979 15.9426341,0.623594553 15.7426341,0.720421787 C15.5426341,0.817443064 15.3709268,0.99343966 15.2273171,1.24802349 C15.1043902,1.58468732 14.9633171,1.96190604 14.8044878,2.3798737 C14.6452683,2.7980354 14.4659512,3.22376477 14.2661463,3.65706179 C14.0661463,4.09074689 13.843122,4.51123711 13.5970732,4.91892051 C13.3508293,5.326992 13.0817561,5.6890754 12.7894634,6.00497668 C12.4973659,6.321072 12.1793171,6.56847626 11.8360976,6.74680136 C11.4922927,6.92532051 11.1209756,7.00429583 10.7209756,6.98392136 C10.5361951,6.93288817 10.4029268,6.795312 10.3209756,6.57080477 C10.2388293,6.34668562 10.1902439,6.06610009 10.1750244,5.7296303 C10.1596098,5.39316051 10.1750244,5.02350945 10.2210732,4.62067711 C10.2673171,4.21803881 10.3287805,3.81772902 10.4056585,3.42013583 C10.4825366,3.0223486 10.5672195,2.64512987 10.6593171,2.28828562 C10.7516098,1.93144136 10.8386341,1.63048136 10.9207805,1.3857937 C11.0439024,1.09026689 11.0439024,0.842668596 10.9207805,0.643969021 C10.7978537,0.445075404 10.6286829,0.312738383 10.4134634,0.246181787 C10.1980488,0.180013277 9.97229268,0.182729872 9.73658537,0.253943489 C9.50068293,0.325351149 9.3315122,0.483301787 9.22907317,0.727989447 C9.05463415,1.14634519 8.89560976,1.615152 8.75219512,2.13518604 C8.60858537,2.65522009 8.49326829,3.19330009 8.4062439,3.74884391 C8.31882927,4.30477583 8.27004878,4.8554686 8.25990244,5.40092221 C8.25931707,5.436432 8.26107317,5.4701954 8.26087805,5.50551115 C8.03726829,6.09831115 7.82419512,6.5463554 7.62185366,6.84615115 C7.36039024,7.23384817 7.06536585,7.40208306 6.73736585,7.35085583 C6.59356098,7.28973243 6.49912195,7.14711115 6.45307317,6.92260391 C6.40643902,6.69848477 6.39121951,6.42313838 6.40643902,6.09656477 C6.4222439,5.77057328 6.46068293,5.40092221 6.52195122,4.98780562 C6.58380488,4.57488306 6.66029268,4.14663115 6.75258537,3.70304987 C6.84507317,3.25927455 6.94243902,2.81355881 7.04487805,2.36473838 C7.14731707,1.916112 7.23960976,1.49290519 7.32195122,1.09511796 C7.31160976,0.738273702 7.20643902,0.465643915 7.00643902,0.276840511 C6.80663415,0.0884251915 6.52702439,0.0144949787 6.16839024,0.0550498723 C5.92234146,0.157116255 5.74009756,0.289841362 5.6222439,0.452837106 C5.50419512,0.615832851 5.40936585,0.825010723 5.3377561,1.0797886 C5.29658537,1.2125137 5.23512195,1.47757583 5.15317073,1.87536306 C5.07102439,2.27276221 4.96604878,2.72934434 4.83785366,3.24413923 C4.70965854,3.75932221 4.55843902,4.29701413 4.38419512,4.85779711 C4.2097561,5.41858009 4.01502439,5.9261954 3.79980488,6.37967285 C3.58439024,6.83334434 3.3484878,7.1979503 3.09229268,7.47329668 C2.83590244,7.74844902 2.55902439,7.86079966 2.26165854,7.80976647 C2.09756098,7.77910774 1.99258537,7.61087285 1.94653659,7.30506179 C1.90029268,6.99905668 1.89268293,6.622032 1.92331707,6.17321157 C1.95414634,5.72458519 2.01560976,5.23249328 2.10790244,4.69732391 C2.20019512,4.16196051 2.29482927,3.65473328 2.39239024,3.17525413 C2.4897561,2.69616306 2.5795122,2.27276221 2.66165854,1.90582774 C2.74360976,1.53869923 2.8,1.29401157 2.83082927,1.17176477 C2.83082927,0.876043915 2.76390244,0.639117957 2.63082927,0.460404766 C2.49736585,0.282273702 2.336,0.169923064 2.14634146,0.123934979 C1.9564878,0.0781409362 1.7617561,0.103560511 1.56195122,0.200387745 C1.36195122,0.297409021 1.1902439,0.473405617 1.04663415,0.727989447 C0.995317073,1.00333583 0.928585366,1.32214774 0.846634146,1.68403711 C0.764487805,2.04592647 0.685268293,2.41810009 0.608390244,2.80055796 C0.531512195,3.18301583 0.459512195,3.557712 0.39297561,3.92484051 C0.326243902,4.29196902 0.277658537,4.61310945 0.246829268,4.88845583 C0.226341463,5.10248477 0.203121951,5.36521838 0.177756098,5.67607455 C0.152,5.98731881 0.139121951,6.31602689 0.139121951,6.66258689 C0.139121951,7.00953498 0.164682927,7.35357243 0.216195122,7.69508732 C0.267317073,8.03679626 0.359609756,8.35036902 0.492878049,8.63561157 C0.626146341,8.92124221 0.813268293,9.15564562 1.05443902,9.33920987 C1.29521951,9.52277413 1.60039024,9.62464647 1.96956098,9.64521498 C2.34868293,9.6653954 2.67941463,9.63764732 2.96156098,9.56100051 C3.2435122,9.48454774 3.49970732,9.36462945 3.73053659,9.20143966 C3.96117073,9.03863796 4.17131707,8.84478945 4.36117073,8.62028221 C4.55063415,8.39616306 4.73795122,8.1514754 4.92253659,7.88621923 C5.09678049,8.27391626 5.32234146,8.57448817 5.59921951,8.78871115 C5.87609756,9.00274009 6.16839024,9.13042009 6.47590244,9.17097498 C6.78341463,9.21152987 7.09639024,9.16864647 7.4142439,9.04096647 C7.73190244,8.91367455 8.01892683,8.69692902 8.2755122,8.39092391 C8.44429268,8.20328477 8.6035122,7.990032 8.75297561,7.7542703 C8.81639024,7.86468051 8.88390244,7.97120987 8.95980488,8.06958945 C9.21112195,8.39616306 9.55219512,8.62028221 9.98282927,8.74272306 C10.4440976,8.86516391 10.8950244,8.88573243 11.3361951,8.80404051 C11.7769756,8.72254264 12.1974634,8.57448817 12.5972683,8.36045923 C12.9972683,8.14623626 13.3687805,7.88893583 13.7123902,7.58797583 C14.0558049,7.28720987 14.3557073,6.97383115 14.6120976,6.64725753 C14.6017561,6.88185498 14.5966829,7.10383966 14.5966829,7.31262945 C14.5966829,7.52180732 14.5916098,7.74844902 14.5814634,7.99333072 C14.0684878,8.35036902 13.5841951,8.77862094 13.128,9.27808647 C12.6716098,9.777552 12.2716098,10.3103929 11.9281951,10.876415 C11.5847805,11.4422431 11.3155122,12.0158329 11.1209756,12.5969903 C10.9260488,13.1785358 10.8310244,13.7212729 10.8362927,14.2261716 C10.8413659,14.7308763 10.9617561,15.1717409 11.1976585,15.5489597 C11.4333659,15.9263724 11.8179512,16.1964797 12.3512195,16.3596694 C12.9049756,16.5331435 13.3918049,16.5379946 13.8124878,16.3749988 C14.2327805,16.211809 14.5992195,15.9415077 14.912,15.564289 C15.2247805,15.1870703 15.4809756,14.7308763 15.6811707,14.1955129 C15.8809756,13.6601494 16.04,13.101889 16.1578537,12.5207316 C16.2757073,11.9395741 16.3500488,11.3681188 16.380878,10.8077239 C16.4117073,10.2467469 16.4117073,9.74689328 16.380878,9.30855115 C17.2626341,8.94161668 17.9853659,8.47766094 18.5494634,7.91668391 C19.1133659,7.35628902 19.5799024,6.76465328 19.9490732,6.14255285 C20.0618537,5.98964732 20.1002927,5.80608306 20.0645854,5.59205413 C20.0284878,5.37783115 19.9414634,5.19426689 19.803122,5.04136136" id="Fill-4"></path>
                            </g>
                            <path d="M48.5709854,8.36649396 C48.6016195,8.13209055 48.6478634,7.8846863 48.7093268,7.62466928 C48.7707902,7.36465226 48.8478634,7.11220289 48.9401561,6.86751523 C49.0322537,6.62282757 49.139961,6.41132119 49.2630829,6.23280204 C49.3862049,6.05447694 49.5169366,5.92699098 49.655278,5.85034417 C49.7938146,5.77408545 49.9344976,5.78165311 50.0783024,5.87324119 C50.2320585,5.96521736 50.3266927,6.15887183 50.3627902,6.45439864 C50.3984976,6.75050757 50.3627902,7.06640885 50.2550829,7.40287864 C50.1473756,7.73954247 49.9551805,8.05544374 49.6783024,8.3511646 C49.4016195,8.64707949 49.0271805,8.84053991 48.5555707,8.93232204 C48.5348878,8.78989481 48.5401561,8.6010914 48.5709854,8.36649396 M53.9001561,8.99344545 C53.7309854,8.94280034 53.5696195,8.93756119 53.4156683,8.97831013 C53.2619122,9.01905906 53.1643512,9.12617055 53.1235707,9.2996446 C53.0412293,9.62583013 52.9104976,9.95977736 52.7311805,10.3012923 C52.5516683,10.6430012 52.3313756,10.9666642 52.0701073,11.2726693 C51.8086439,11.5784803 51.5136195,11.8487816 51.1856195,12.083185 C50.8574244,12.3177825 50.5140098,12.4860174 50.1551805,12.5878897 C49.795961,12.7002403 49.4987902,12.7128531 49.2630829,12.6261161 C49.0271805,12.5397671 48.8400585,12.3917127 48.7017171,12.1827289 C48.5633756,11.973745 48.463278,11.7212957 48.4018146,11.4255748 C48.3401561,11.129854 48.3042537,10.8240429 48.2941073,10.5077535 C48.8784976,10.5486965 49.3988878,10.4443016 49.855278,10.1941808 C50.311278,9.94464204 50.6984,9.61302332 51.0164488,9.20010077 C51.3341073,8.78717821 51.5750829,8.32322247 51.7391805,7.80823353 C51.9030829,7.29343864 51.9955707,6.78097226 52.0160585,6.27102843 C52.0262049,5.79174332 51.9545951,5.38658247 51.800839,5.05515779 C51.6470829,4.72392715 51.439278,4.4660446 51.1778146,4.28267438 C50.9165463,4.09911013 50.6164488,3.99199864 50.2781073,3.96153396 C49.939961,3.93087523 49.5961561,3.97686332 49.2476683,4.09911013 C48.8269854,4.24192545 48.4708878,4.4738063 48.1787902,4.79514077 C47.8864976,5.11628119 47.6427902,5.48864885 47.4482537,5.91166162 C47.2533268,6.33486843 47.0995707,6.79106247 46.9867902,7.28043779 C46.8738146,7.77000715 46.7918634,8.25181481 46.7407415,8.72605481 C46.6944976,9.15159013 46.6699122,9.55849736 46.6611317,9.95123949 C46.639278,10.0011084 46.6180098,10.0490369 46.5945951,10.1023986 C46.4355707,10.4646761 46.2507902,10.8189978 46.040839,11.1655578 C45.8306927,11.5123118 45.5973268,11.8029876 45.3411317,12.037391 C45.0847415,12.2719884 44.8182049,12.3534863 44.5413268,12.2820786 C44.3772293,12.2415237 44.2876683,12.0525263 44.2722537,11.7162506 C44.256839,11.3795867 44.2745951,10.9616191 44.3259122,10.4619595 C44.3772293,9.96249396 44.4361561,9.42169736 44.5028878,8.84053991 C44.5694244,8.25938247 44.6027902,7.70383864 44.6027902,7.17352034 C44.6027902,6.7146097 44.5155707,6.27374502 44.3413268,5.85034417 C44.1668878,5.42752545 43.9284488,5.07553226 43.6262049,4.79514077 C43.3235707,4.51455523 42.9725463,4.32846843 42.5727415,4.23688034 C42.1727415,4.14490417 41.7421073,4.20622162 41.280839,4.42025055 C40.8191805,4.63447353 40.4527415,4.93523949 40.1811317,5.32274247 C39.9091317,5.71043949 39.6605463,6.11812289 39.4351805,6.54637481 C39.352839,6.21999523 39.2326439,5.91690077 39.0736195,5.63631523 C38.9145951,5.35592374 38.7200585,5.11123609 38.4892293,4.90205821 C38.2584,4.69326843 37.999278,4.53007864 37.7126439,4.41268289 C37.4254244,4.29567523 37.1227902,4.23688034 36.8049366,4.23688034 C36.4974244,4.23688034 36.2129366,4.29567523 35.9514732,4.41268289 C35.6900098,4.53007864 35.4515707,4.68026757 35.2361561,4.86383183 C35.0209366,5.04759013 34.8262049,5.25385736 34.6517659,5.4834097 C34.477522,5.712768 34.3233756,5.93979779 34.1904976,6.16391694 C34.1696195,5.89885481 34.1465951,5.66697396 34.1212293,5.4678863 C34.0954732,5.26918672 34.0492293,5.10095183 33.9826927,4.96337566 C33.915961,4.82560545 33.8213268,4.72121055 33.6982049,4.64980289 C33.5750829,4.57858928 33.400839,4.5426914 33.1754732,4.5426914 C33.0624976,4.5426914 32.949522,4.56558843 32.8369366,4.61138247 C32.723961,4.65737055 32.6238634,4.72121055 32.5370341,4.80270843 C32.4498146,4.88459438 32.383278,4.98375013 32.3372293,5.10095183 C32.2907902,5.21815353 32.2783024,5.35340119 32.2985951,5.50630672 C32.3087415,5.61865736 32.3372293,5.75351694 32.383278,5.91166162 C32.4293268,6.0698063 32.472839,6.27646162 32.5140098,6.53104545 C32.5547902,6.78601736 32.5881561,7.09454502 32.6139122,7.45643438 C32.6394732,7.81851779 32.6470829,8.26209906 32.6369366,8.78717821 C32.6265951,9.3124514 32.5881561,9.92659609 32.5216195,10.6301944 C32.4546927,11.3337927 32.3497171,12.1495476 32.2063024,13.077265 C32.1858146,13.291488 32.2677659,13.464962 32.4525463,13.5974931 C32.6369366,13.7298301 32.8470829,13.8062829 33.0829854,13.8268514 C33.3186927,13.8472259 33.5419122,13.8062829 33.7520585,13.7046046 C33.9622049,13.6023442 34.0827902,13.4240191 34.1134244,13.1692412 C34.1442537,12.6899561 34.2031805,12.1802063 34.2904,11.6396037 C34.3774244,11.0993893 34.4851317,10.5640259 34.6133268,10.0337076 C34.741522,9.50358332 34.8874732,8.99887864 35.0517659,8.51939949 C35.2156683,8.04011438 35.3977171,7.61710162 35.5977171,7.24997311 C35.7977171,6.8828446 36.0053268,6.58984034 36.2205463,6.37057226 C36.435961,6.15130417 36.6613268,6.04167013 36.8974244,6.04167013 C37.1844488,6.04167013 37.407278,6.1714846 37.5664976,6.43150162 C37.7251317,6.69171268 37.8379122,7.02585396 37.904839,7.43334332 C37.9713756,7.84141481 38.0020098,8.28771268 37.9971317,8.77184885 C37.9916683,9.25617906 37.9713756,9.72265736 37.9354732,10.1712837 C37.8995707,10.6201042 37.8585951,11.0202199 37.8123512,11.3720191 C37.7663024,11.7238182 37.7329366,11.9661774 37.7126439,12.0985144 C37.7126439,12.3331118 37.8022049,12.5190046 37.981522,12.6567748 C38.160839,12.794351 38.360839,12.8760429 38.581522,12.9014625 C38.8020098,12.9270761 39.0094244,12.8861331 39.2043512,12.7790216 C39.3990829,12.6719101 39.5118634,12.4912565 39.5426927,12.2360906 C39.6451317,11.5020276 39.7862049,10.765442 39.965522,10.0261399 C40.144839,9.28683779 40.3501073,8.62418247 40.5809366,8.03778587 C40.8115707,7.45138928 41.0677659,6.97210417 41.3499122,6.59993055 C41.6318634,6.22795098 41.9317659,6.04167013 42.2498146,6.04167013 C42.413522,6.04167013 42.5393756,6.15402077 42.6264,6.37813991 C42.7134244,6.60245311 42.7571317,6.90826417 42.7571317,7.29576715 C42.7571317,7.58139779 42.7341073,7.87459609 42.6880585,8.17536204 C42.6418146,8.476128 42.5881561,8.78717821 42.5264976,9.10831864 C42.4650341,9.42965311 42.4111805,9.75836119 42.3649366,10.094831 C42.3188878,10.4314948 42.2958634,10.7830999 42.2958634,11.1502284 C42.2958634,11.4052003 42.3214244,11.7009212 42.3727415,12.037391 C42.4238634,12.3736667 42.5212293,12.6926727 42.664839,12.9932446 C42.8084488,13.2942046 43.0057171,13.5489825 43.2572293,13.7579663 C43.5083512,13.9669501 43.8285463,14.0715391 44.2182049,14.0715391 C44.8027902,14.0715391 45.3204488,13.9465757 45.7717659,13.6968429 C46.2228878,13.4471101 46.6100098,13.1209246 46.9329366,12.7180923 C46.9497171,12.6969416 46.9649366,12.6744327 46.9813268,12.6534761 C47.0061073,12.7130471 47.027961,12.776111 47.0558634,12.8327714 C47.2763512,13.2813978 47.5762537,13.6279578 47.9557659,13.8728395 C48.3348878,14.1175271 48.7809366,14.2525808 49.2939122,14.2781944 C49.8064976,14.3034199 50.3651317,14.2091152 50.9704,13.9950863 C51.4213268,13.8318965 51.813522,13.6279578 52.1467902,13.3832701 C52.4798634,13.1385825 52.7797659,12.8403391 53.0464976,12.4885399 C53.3132293,12.1367408 53.5565463,11.7313859 53.7772293,11.2726693 C53.9977171,10.8135646 54.2205463,10.2886795 54.4461073,9.69704374 C54.4870829,9.53424204 54.4486439,9.38890417 54.3309854,9.26122417 C54.2129366,9.13393226 54.069522,9.04467268 53.9001561,8.99344545" id="Fill-7"></path>
                            <path d="M62.2594341,7.28808306 C62.207922,7.58904306 62.1388488,7.92066179 62.0518244,8.28235711 C61.9644098,8.64444051 61.854361,9.01913668 61.7210927,9.40663966 C61.5878244,9.79414264 61.4237268,10.1434192 61.2289951,10.4542754 C61.0340683,10.7655197 60.8110439,11.0125358 60.559922,11.1961001 C60.3086049,11.3796643 60.0190439,11.4561171 59.6908488,11.4254584 C59.5267512,11.405278 59.4010927,11.2931214 59.3140683,11.0889886 C59.2268488,10.8852439 59.1808,10.6250329 59.1755317,10.3089375 C59.1704585,9.99303626 59.1985561,9.64628221 59.2602146,9.26886945 C59.321678,8.89184477 59.4165073,8.52199966 59.5448976,8.15991626 C59.6728976,7.79822094 59.8293854,7.46407966 60.0137756,7.15807455 C60.198361,6.85226349 60.4110439,6.61514349 60.6522146,6.4469086 C60.8929951,6.2786737 61.1571902,6.19989243 61.4442146,6.2097886 C61.731239,6.22007285 62.0387512,6.36269413 62.3671415,6.63804051 C62.3462634,6.77076562 62.3107512,6.98751115 62.2594341,7.28808306 M67.7269463,8.45815966 C67.567922,8.37666179 67.4040195,8.35900391 67.2348488,8.40479796 C67.0658732,8.450592 66.9450927,8.60621413 66.8734829,8.87127626 C66.8325073,9.15690689 66.7402146,9.49318264 66.5968,9.88068562 C66.4529951,10.2681886 66.2760195,10.6355111 66.0660683,10.9818771 C65.8557268,11.3286311 65.6147512,11.6167843 65.3431415,11.8461426 C65.0713366,12.075695 64.7817756,12.1802839 64.4742634,12.1595214 C64.217678,12.1393409 64.0381659,12.0093324 63.935922,11.7696899 C63.8330927,11.5300473 63.7794341,11.2294754 63.774361,10.867198 C63.7690927,10.5055026 63.8051902,10.0976252 63.8818732,9.64375966 C63.9589463,9.19008817 64.051239,8.73893923 64.1587512,8.28992477 C64.2664585,7.84149243 64.3767024,7.41052391 64.489678,6.99760136 C64.6022634,6.58467881 64.694361,6.23540221 64.7665561,5.94996562 C64.8485073,5.6949937 64.8227512,5.47844221 64.6894829,5.29972902 C64.5562146,5.12159796 64.3895805,4.99391796 64.1897756,4.91746519 C63.9895805,4.84101243 63.7870439,4.82063796 63.5819707,4.85634179 C63.3768976,4.89204562 63.2438244,5.00167966 63.1821659,5.18504987 C62.5770927,4.66501583 61.995239,4.38462434 61.4366049,4.3438754 C60.8775805,4.30312647 60.3622634,4.42556732 59.8908488,4.71100391 C59.4190439,4.99644051 59.0012878,5.40936306 58.6373854,5.94996562 C58.2732878,6.49056817 57.9784585,7.07929328 57.7528976,7.71652902 C57.5273366,8.35376477 57.3862634,9.00400136 57.3300683,9.66665668 C57.2734829,10.329506 57.3169951,10.9337546 57.4608,11.4792082 C57.6044098,12.0246618 57.8578732,12.4709597 58.2221659,12.8173256 C58.5858732,13.1640797 59.0807024,13.3375537 59.7062634,13.3375537 C59.9831415,13.3375537 60.249678,13.2814754 60.5060683,13.1693188 C60.7622634,13.0569682 60.9981659,12.9244371 61.2135805,12.7715316 C61.4288,12.618626 61.6184585,12.4579588 61.7827512,12.2897239 C61.9464585,12.121489 62.0748488,11.9813903 62.1671415,11.8690397 C62.2387512,12.2361682 62.3568,12.5474124 62.5208976,12.8021903 C62.6848,13.0569682 62.8721171,13.2663401 63.0822634,13.4291418 C63.2922146,13.5921375 63.5128976,13.7120558 63.7435317,13.7887026 C63.974361,13.8651554 64.1973854,13.9033818 64.4126049,13.9033818 C64.8945561,13.9033818 65.3454829,13.740192 65.7661659,13.4138124 C66.1864585,13.0878209 66.563239,12.6873171 66.8967024,12.2132711 C67.2297756,11.7390311 67.5041171,11.2395656 67.7193366,10.7142924 C67.9347512,10.1892133 68.0781659,9.72273498 68.1499707,9.31466349 C68.2217756,9.16175796 68.2088976,9.00128477 68.1115317,8.83304987 C68.0139707,8.66481498 67.8859707,8.54004562 67.7269463,8.45815966" id="Fill-9"></path>
                            <g id="Group-13" transform="translate(70.829268, 0.229164)">
                                <path d="M24.5822244,16.6719809 C24.4952,17.0185409 24.3592,17.3119333 24.1746146,17.5513818 C23.9902244,17.7910243 23.7593951,17.9159877 23.4825171,17.926272 C23.3082732,17.9363622 23.1750049,17.8445801 23.0827122,17.6509256 C22.9904195,17.4570771 22.9264195,17.2073443 22.8905171,16.9015333 C22.8544195,16.5955282 22.8390049,16.2538192 22.8442732,15.8766005 C22.8493463,15.4993818 22.864761,15.1272082 22.8905171,14.7600797 C22.9158829,14.3931452 22.9467122,14.0512422 22.9828098,13.7353409 C23.0185171,13.4190516 23.0466146,13.174752 23.0672976,13.001278 C23.4157854,13.0420269 23.7057366,13.1922158 23.9361756,13.4524269 C24.1670049,13.7124439 24.3437854,14.0207775 24.4669073,14.3778158 C24.5900293,14.7346601 24.661639,15.1196405 24.682322,15.5325631 C24.7026146,15.9454856 24.6692488,16.3252269 24.5822244,16.6719809 M19.0146146,16.6719809 C18.9275902,17.0185409 18.7915902,17.3119333 18.6070049,17.5513818 C18.4226146,17.7910243 18.1917854,17.9159877 17.9149073,17.926272 C17.7406634,17.9363622 17.6073951,17.8445801 17.5151024,17.6509256 C17.4228098,17.4570771 17.3586146,17.2073443 17.3229073,16.9015333 C17.2866146,16.5955282 17.2713951,16.2538192 17.2766634,15.8766005 C17.2817366,15.4993818 17.2971512,15.1272082 17.3229073,14.7600797 C17.3482732,14.3931452 17.3791024,14.0512422 17.4152,13.7353409 C17.4509073,13.4190516 17.4790049,13.174752 17.4996878,13.001278 C17.8481756,13.0420269 18.1381268,13.1922158 18.3685659,13.4524269 C18.5993951,13.7124439 18.7761756,14.0207775 18.8992976,14.3778158 C19.0224195,14.7346601 19.0940293,15.1196405 19.1147122,15.5325631 C19.1350049,15.9454856 19.101639,16.3252269 19.0146146,16.6719809 M13.3010537,7.98450179 C13.2905171,8.2289954 13.2674927,8.44574094 13.2315902,8.6343503 C13.1956878,8.82334774 13.1471024,8.94287796 13.085639,8.99391115 C12.9726634,8.9325937 12.8341268,8.77483711 12.6702244,8.51967115 C12.5061268,8.26489328 12.3781268,7.97654604 12.285639,7.65540562 C12.1935415,7.33426519 12.1650537,7.01836391 12.2011512,6.70711966 C12.2368585,6.39626349 12.3986146,6.15429243 12.685639,5.98062434 C12.7982244,5.91950094 12.8955902,5.94239796 12.9779317,6.04950945 C13.0598829,6.15662094 13.1264195,6.31204902 13.1779317,6.51598774 C13.2290537,6.72012051 13.264761,6.95452391 13.2854439,7.21958604 C13.3059317,7.48484221 13.3110049,7.73962009 13.3010537,7.98450179 M11.9396878,11.0358209 C11.7806634,11.2038618 11.6036878,11.3491997 11.4091512,11.4716405 C11.2142244,11.5940814 11.0142244,11.6858635 10.8093463,11.7469869 C10.604078,11.8083043 10.4194927,11.8234397 10.2555902,11.7927809 C9.79412683,11.7011929 9.44037073,11.5021052 9.19451707,11.1962941 C8.94827317,10.8904831 8.79178537,10.5311163 8.72524878,10.1181937 C8.65851707,9.70507711 8.66612683,9.26401838 8.74846829,8.79501753 C8.83022439,8.32601668 8.96856585,7.89019711 9.16349268,7.48736477 C9.35841951,7.08453243 9.59432195,6.73777838 9.87100488,6.44729668 C10.1478829,6.15662094 10.4501268,5.97577328 10.7785171,5.90417157 C10.6553951,6.42420562 10.6144195,6.96228562 10.6553951,7.51782945 C10.6963707,8.07356732 10.8298341,8.59612391 11.0553951,9.08549923 C11.1988098,9.38160817 11.3707122,9.65152136 11.5705171,9.89620902 C11.7705171,10.1410907 12.0140293,10.3500746 12.3012488,10.5233546 C12.2191024,10.6968286 12.0985171,10.867586 11.9396878,11.0358209 M28.9580293,8.13740732 C28.9886634,7.90300391 29.0347122,7.65540562 29.0963707,7.3953886 C29.1578341,7.13556562 29.2349073,6.88311626 29.3270049,6.6384286 C29.4192976,6.39354689 29.5270049,6.18204051 29.6501268,6.0037154 C29.7732488,5.8253903 29.9037854,5.6977103 30.0421268,5.62125753 C30.1806634,5.54480477 30.3215415,5.55237243 30.4651512,5.64415455 C30.6189073,5.73613072 30.7137366,5.92978519 30.749639,6.225312 C30.7855415,6.52122689 30.749639,6.83712817 30.6421268,7.173792 C30.5344195,7.51026179 30.3422244,7.82635711 30.0653463,8.12188391 C29.7886634,8.41799285 29.4142244,8.61145328 28.9426146,8.7032354 C28.9219317,8.56061413 28.9272,8.37200477 28.9580293,8.13740732 M35.1562732,8.13740732 C35.1871024,7.90300391 35.2331512,7.65540562 35.2946146,7.3953886 C35.3562732,7.13556562 35.4331512,6.88311626 35.5254439,6.6384286 C35.6177366,6.39354689 35.7252488,6.18204051 35.8483707,6.0037154 C35.9714927,5.8253903 36.1022244,5.6977103 36.2405659,5.62125753 C36.3791024,5.54480477 36.5199805,5.55237243 36.6635902,5.64415455 C36.8173463,5.73613072 36.9119805,5.92978519 36.948078,6.225312 C36.9839805,6.52122689 36.948078,6.83712817 36.8403707,7.173792 C36.7326634,7.51026179 36.5404683,7.82635711 36.2635902,8.12188391 C35.9869073,8.41799285 35.6124683,8.61145328 35.1408585,8.7032354 C35.1203707,8.56061413 35.1254439,8.37200477 35.1562732,8.13740732 M40.9162732,9.03213753 C40.7982244,8.90484562 40.6548098,8.81558604 40.485639,8.76435881 C40.3164683,8.71351966 40.1551024,8.70847455 40.0009561,8.74922349 C39.8472,8.78997243 39.749639,8.89708391 39.7088585,9.07036391 C39.6267122,9.39674349 39.4959805,9.73069072 39.3166634,10.0720116 C39.1371512,10.4139146 38.9168585,10.7375775 38.6553951,11.0433886 C38.3939317,11.3491997 38.0989073,11.619695 37.7711024,11.8540984 C37.4427122,12.0886958 37.0992976,12.2569307 36.7406634,12.358609 C36.3814439,12.4711537 36.084078,12.4837665 35.8483707,12.3970294 C35.6124683,12.3104865 35.4253463,12.162626 35.2870049,11.9536422 C35.1486634,11.7444643 35.048761,11.492209 34.9871024,11.1962941 C34.925639,10.9007673 34.8895415,10.5949563 34.8793951,10.2786669 C35.4639805,10.3196099 35.9843707,10.215215 36.4405659,9.96509413 C36.8965659,9.71536136 37.2838829,9.38374264 37.6019317,8.97082009 C37.9195902,8.55809157 38.1605659,8.09413583 38.3246634,7.57914689 C38.4885659,7.06415796 38.5808585,6.55188562 38.6015415,6.04194179 C38.6114927,5.56265668 38.5398829,5.15730179 38.3861268,4.82587711 C38.2323707,4.49464647 38.024761,4.23695796 37.7632976,4.05358774 C37.5018341,3.86982945 37.2019317,3.762912 36.8633951,3.73225328 C36.5252488,3.70159455 36.1814439,3.74777668 35.8329561,3.86982945 C35.4124683,4.01283881 35.0563707,4.24471966 34.7642732,4.56586009 C34.4719805,4.88719455 34.2282732,5.25956221 34.0335415,5.68238094 C33.8386146,6.10578179 33.6848585,6.56178179 33.572078,7.05135115 C33.4591024,7.54072647 33.3771512,8.02272817 33.3262244,8.49677413 C33.2762732,8.95684902 33.2491512,9.39713157 33.2431024,9.818592 C33.2042732,9.90261243 33.1629073,9.98702094 33.1182244,10.0720116 C32.9387122,10.4139146 32.7184195,10.7375775 32.4569561,11.0433886 C32.1956878,11.3491997 31.9006634,11.619695 31.5726634,11.8540984 C31.2444683,12.0886958 30.9010537,12.2569307 30.5422244,12.358609 C30.1830049,12.4711537 29.8858341,12.4837665 29.6501268,12.3970294 C29.4142244,12.3104865 29.2271024,12.162626 29.088761,11.9536422 C28.9504195,11.7444643 28.850322,11.492209 28.7888585,11.1962941 C28.7272,10.9007673 28.6912976,10.5949563 28.6811512,10.2786669 C29.2655415,10.3196099 29.7859317,10.215215 30.242322,9.96509413 C30.698322,9.71536136 31.0854439,9.38374264 31.4034927,8.97082009 C31.7211512,8.55809157 31.9621268,8.09413583 32.1262244,7.57914689 C32.2901268,7.06415796 32.3826146,6.55188562 32.4031024,6.04194179 C32.4132488,5.56265668 32.341639,5.15730179 32.1878829,4.82587711 C32.0339317,4.49464647 31.826322,4.23695796 31.5648585,4.05358774 C31.3033951,3.86982945 31.0034927,3.762912 30.6651512,3.73225328 C30.3268098,3.70159455 29.9832,3.74777668 29.6347122,3.86982945 C29.2140293,4.01283881 28.8579317,4.24471966 28.5658341,4.56586009 C28.2735415,4.88719455 28.0298341,5.25956221 27.8352976,5.68238094 C27.6403707,6.10578179 27.4866146,6.56178179 27.3738341,7.05135115 C27.2608585,7.54072647 27.1789073,8.02272817 27.1277854,8.49677413 C27.0987122,8.76416477 27.0792,9.02340562 27.0649561,9.27798945 C26.9658341,9.36181583 26.8692488,9.44622434 26.7662244,9.52908051 C26.4126634,9.81471115 26.040761,10.0720116 25.6512976,10.3015639 C25.2612488,10.5311163 24.8563707,10.7197256 24.4362732,10.867586 C24.0155902,11.0154465 23.5849561,11.104706 23.1441756,11.1351707 L24.0979317,0.979177532 C24.1593951,0.764954553 24.1285659,0.576539234 24.005639,0.413349447 C23.8825171,0.25015966 23.7234927,0.138003064 23.528761,0.0768796596 C23.3340293,0.0155622128 23.1262244,0.0208013617 22.9057366,0.0920149787 C22.6852488,0.163616681 22.5033951,0.326806468 22.3597854,0.581390298 C22.2879805,0.969087319 22.213639,1.49921157 22.1369561,2.17215115 C22.0598829,2.84509072 21.9830049,3.57934774 21.9061268,4.37472817 C21.8292488,5.1701086 21.7523707,5.9909086 21.6754927,6.83712817 C21.5986146,7.68373583 21.5316878,8.47387711 21.4754927,9.20794009 C21.4729561,9.24053923 21.4708098,9.2700337 21.4682732,9.30224477 C21.3785171,9.37792136 21.2914927,9.45418009 21.1986146,9.52908051 C20.8450537,9.81471115 20.4729561,10.0720116 20.0834927,10.3015639 C19.693639,10.5311163 19.288761,10.7197256 18.8686634,10.867586 C18.4479805,11.0154465 18.0171512,11.104706 17.5765659,11.1351707 L18.5301268,0.979177532 C18.5917854,0.764954553 18.5609561,0.576539234 18.4380293,0.413349447 C18.3149073,0.25015966 18.1556878,0.138003064 17.9609561,0.0768796596 C17.7662244,0.0155622128 17.5586146,0.0208013617 17.3381268,0.0920149787 C17.117639,0.163616681 16.9357854,0.326806468 16.7921756,0.581390298 C16.7203707,0.969087319 16.6460293,1.49921157 16.5693463,2.17215115 C16.4922732,2.84509072 16.4153951,3.57934774 16.3385171,4.37472817 C16.2614439,5.1701086 16.184761,5.9909086 16.1076878,6.83712817 C16.0310049,7.68373583 15.964078,8.47387711 15.9078829,9.20794009 C15.9067122,9.22268732 15.9057366,9.23607626 15.9045659,9.25082349 C15.7433951,9.32514179 15.5677854,9.39034009 15.3771512,9.44506009 C15.1822244,9.50133243 14.9619317,9.5345137 14.7158829,9.54460391 C14.7568585,9.36084562 14.7900293,9.15690689 14.8157854,8.9325937 C14.8413463,8.70847455 14.8620293,8.47387711 14.8774439,8.2289954 C14.8928585,7.98450179 14.8977366,7.73962009 14.8928585,7.49493243 C14.8873951,7.25005072 14.8747122,7.02593157 14.8544195,6.82179881 C14.8029073,6.38365072 14.7082732,5.96801157 14.5699317,5.57526945 C14.4313951,5.1829154 14.2442732,4.85420732 14.0085659,4.58875711 C13.7724683,4.32369498 13.4778341,4.14517583 13.1238829,4.05358774 C12.770322,3.96180562 12.3574439,3.9922703 11.8860293,4.14517583 C11.1884683,4.05358774 10.5605659,4.11742774 10.0017366,4.33650179 C9.44290732,4.55596391 8.95841951,4.87438774 8.54827317,5.2923554 C8.13832195,5.71071115 7.80251707,6.20241498 7.54105366,6.76843711 C7.27939512,7.33426519 7.10515122,7.91561668 7.01793171,8.51190945 C6.98105366,8.76474689 6.96310244,9.01642009 6.95763902,9.26751115 C6.79900488,9.59078604 6.62515122,9.873312 6.43354146,10.110432 C6.16193171,10.4469018 5.87998049,10.7222482 5.5876878,10.9362771 C5.29539512,11.1505001 5.00563902,11.3136899 4.71880976,11.4258465 C4.43159024,11.5381971 4.1752,11.6146499 3.94983415,11.6552048 C3.68310244,11.706238 3.4267122,11.7114771 3.18066341,11.6705341 C2.93480976,11.6299792 2.70885854,11.5125835 2.50417561,11.318735 C2.33988293,11.1761137 2.21422439,10.9465614 2.1272,10.630466 C2.03998049,10.3143707 1.98885854,9.95519796 1.9734439,9.55217157 C1.95802927,9.14933923 1.9734439,8.72865498 2.01949268,8.29031285 C2.06573659,7.85197072 2.1449561,7.43633157 2.25793171,7.04378349 C2.3707122,6.6512354 2.51393171,6.29943626 2.68856585,5.988192 C2.86261463,5.67752987 3.0676878,5.45554519 3.30378537,5.32301413 C3.43685854,5.34358264 3.5192,5.42236391 3.54983415,5.55994009 C3.58066341,5.6977103 3.58827317,5.86090009 3.57285854,6.04950945 C3.55763902,6.23831285 3.53441951,6.43196732 3.50378537,6.63066689 C3.4729561,6.82956051 3.45754146,6.99546689 3.45754146,7.12780391 C3.50885854,7.4031503 3.60876098,7.61737328 3.7574439,7.77027881 C3.90593171,7.92318434 4.0729561,8.01263796 4.25734634,8.03786349 C4.44193171,8.06347711 4.62378537,8.02020562 4.80349268,7.90785498 C4.98261463,7.79589243 5.12876098,7.61737328 5.24173659,7.37249157 C5.25188293,7.38277583 5.26729756,7.38782094 5.28778537,7.38782094 L5.5032,5.44545498 C5.56466341,5.18019881 5.52349268,4.9457954 5.38007805,4.74185668 C5.23646829,4.53791796 5.04680976,4.42052221 4.81110244,4.39005753 C4.51354146,3.96180562 4.1112,3.73496987 3.6036878,3.70935626 C3.09617561,3.68393668 2.57559024,3.84964902 2.04251707,4.20649328 C1.71432195,4.44128477 1.42476098,4.7647537 1.17363902,5.17767626 C0.922126829,5.59079285 0.71724878,6.04950945 0.558419512,6.55421413 C0.3992,7.05891881 0.286614634,7.5919537 0.220078049,8.15273668 C0.153346341,8.71351966 0.140468293,9.25916732 0.181443902,9.78909753 C0.222419512,10.3196099 0.317443902,10.8192694 0.466126829,11.2880763 C0.614614634,11.7572711 0.82222439,12.1498192 1.08915122,12.4657205 C1.31451707,12.7410669 1.5707122,12.9426771 1.85793171,13.0701631 C2.1449561,13.197649 2.44485854,13.2764303 2.75763902,13.307089 C3.07041951,13.3375537 3.38066341,13.3247469 3.68837073,13.2688626 C3.99588293,13.2129784 4.28817561,13.1340031 4.56485854,13.0317426 C4.9236878,12.8994056 5.29305366,12.7309767 5.67237073,12.527038 C6.05149268,12.3232933 6.41559024,12.0784116 6.76446829,11.7927809 C6.9476878,11.642592 7.12427317,11.4788201 7.29500488,11.3032116 C7.37266341,11.4949256 7.45949268,11.6804303 7.56407805,11.8540984 C7.8409561,12.312815 8.21500488,12.6851826 8.68680976,12.9706192 C9.15822439,13.2560558 9.73773659,13.393438 10.424761,13.3835418 C11.1631024,13.3732575 11.8448585,13.1873648 12.4704195,12.8252814 C13.0957854,12.463586 13.6085659,11.9303571 14.0085659,11.2269529 C14.6075902,11.2269529 15.1966634,11.1287673 15.7759805,10.9337546 C15.7712976,10.9954601 15.7662244,11.0604643 15.7617366,11.1200354 C15.7209561,11.6604439 15.700078,12.0273784 15.700078,12.2212269 C15.6901268,12.5576967 15.6671024,12.9731418 15.6310049,13.4675622 C15.5951024,13.9621767 15.572078,14.4822107 15.5619317,15.0276643 C15.5517854,15.573118 15.572078,16.1238107 15.6233951,16.6797426 C15.6747122,17.2352865 15.7822244,17.7401852 15.946322,18.1940507 C16.1102244,18.6475282 16.3433951,19.0325086 16.6460293,19.348798 C16.9484683,19.6646992 17.3459317,19.8535026 17.8382244,19.914626 C18.3609561,19.9858397 18.812078,19.8940575 19.1915902,19.6392797 C19.5707122,19.3843077 19.8784195,19.0352252 20.1145171,18.5916439 C20.3502244,18.1478686 20.5166634,17.6355963 20.6142244,17.0544388 C20.7115902,16.4732814 20.7396878,15.8894073 20.6989073,15.3030107 C20.6577366,14.7166141 20.5500293,14.1635929 20.3757854,13.6437529 C20.2013463,13.1235248 19.9603707,12.6952729 19.6528585,12.358609 C19.837639,12.3079639 20.0579317,12.2111367 20.314322,12.0681273 C20.570322,11.925506 20.8345171,11.7648388 21.1065171,11.5863197 C21.1730537,11.542466 21.2390049,11.4962839 21.3055415,11.451266 C21.2805659,11.8125733 21.2678829,12.0702618 21.2678829,12.2212269 C21.2577366,12.5576967 21.2347122,12.9731418 21.1986146,13.4675622 C21.1629073,13.9621767 21.1396878,14.4822107 21.1295415,15.0276643 C21.1193951,15.573118 21.1396878,16.1238107 21.1910049,16.6797426 C21.242322,17.2352865 21.3500293,17.7401852 21.5139317,18.1940507 C21.6778341,18.6475282 21.9112,19.0325086 22.213639,19.348798 C22.516078,19.6646992 22.9135415,19.8535026 23.4058341,19.914626 C23.9285659,19.9858397 24.3796878,19.8940575 24.7592,19.6392797 C25.1385171,19.3843077 25.4460293,19.0352252 25.6821268,18.5916439 C25.9178341,18.1478686 26.0842732,17.6355963 26.1818341,17.0544388 C26.2792,16.4732814 26.3072976,15.8894073 26.2665171,15.3030107 C26.2253463,14.7166141 26.117639,14.1635929 25.9435902,13.6437529 C25.7689561,13.1235248 25.5281756,12.6952729 25.2204683,12.358609 C25.4052488,12.3079639 25.6255415,12.2111367 25.8819317,12.0681273 C26.1381268,11.925506 26.4021268,11.7648388 26.6741268,11.5863197 C26.8152,11.4935673 26.9556878,11.3979043 27.0955902,11.2995248 C27.1484683,11.7982141 27.2620293,12.235586 27.4429073,12.6034907 C27.6633951,13.0523111 27.9632976,13.3988711 28.3426146,13.6437529 C28.7219317,13.8882465 29.1679805,14.0234941 29.6809561,14.0489137 C30.1935415,14.0741392 30.7521756,13.9800286 31.3574439,13.7658056 C31.8083707,13.6028099 32.2005659,13.3988711 32.5338341,13.1541835 C32.8669073,12.9093018 33.1668098,12.6110584 33.4335415,12.2594533 C33.4489561,12.2390788 33.4635902,12.216958 33.4786146,12.1963894 C33.5260293,12.3392048 33.5787122,12.4763929 33.6413463,12.6034907 C33.8618341,13.0523111 34.1617366,13.3988711 34.5410537,13.6437529 C34.9201756,13.8882465 35.3664195,14.0234941 35.8792,14.0489137 C36.3917854,14.0741392 36.9506146,13.9800286 37.5556878,13.7658056 C38.0068098,13.6028099 38.3990049,13.3988711 38.7322732,13.1541835 C39.0653463,12.9093018 39.3652488,12.6110584 39.6319805,12.2594533 C39.8985171,11.9074601 40.1418341,11.5021052 40.3625171,11.0433886 C40.5830049,10.584478 40.8058341,10.0595929 41.0315902,9.46795711 C41.0725659,9.30496136 41.0339317,9.15962349 40.9162732,9.03213753" id="Fill-11"></path>
                            </g>
                        </g>
                    </g>
                </g>
            </g>
        </g>
    </g>
</svg>